<svg width="89" height="89" viewBox="0 0 89 89" fill="none" xmlns="http://www.w3.org/2000/svg">
<path fill-rule="evenodd" clip-rule="evenodd" d="M83.1021 24.2276L82.5593 16.9918L79.3853 13.8178L72.1495 13.275L60.0442 22.2063L59.794 25.5419L50.3341 35.0018L54.2831 38.9193L61.0001 32.2024L64.694 28.5085L64.9334 28.2691L64.1741 27.5098L63.3467 26.6824L67.8734 23.3426L72.3865 20.0128L74.888 18.1672L75.452 17.7511L78.626 20.9251L78.2099 21.4891L76.3643 23.9906L73.0345 28.5037L69.6947 33.0304L68.8667 32.2024L68.1074 31.4431L67.8679 31.6826L64.1741 35.3764L57.4698 42.0807L61.4188 45.9982L70.8339 36.5832L74.1708 36.3329L83.1021 24.2276ZM42.0944 68.497L38.1767 64.5481L31.5544 71.1704L27.6212 75.1037L25.2064 72.6889L23.6879 71.1704L21.2731 68.7556L25.2064 64.8223L31.8538 58.1749L27.9361 54.2261L17.3398 64.8223V72.6889L23.6879 79.0369H31.5544L42.0944 68.497Z" fill="white"/>
<mask id="path-2-outside-1_305_25472" maskUnits="userSpaceOnUse" x="-1.9187" y="3.34683" width="88.3883" height="88.3883" fill="black">
<rect fill="white" x="-1.9187" y="3.34683" width="88.3883" height="88.3883"/>
<path fill-rule="evenodd" clip-rule="evenodd" d="M32.9775 44.8886C27.023 48.1119 19.4258 47.2072 14.3933 42.1748C10.7923 38.5738 9.30485 33.6598 9.93077 28.974L21.9362 40.9795L35.4161 27.4996L23.4107 15.4941C28.0964 14.8682 33.0105 16.3557 36.6114 19.9566C41.6438 24.989 42.5485 32.586 39.3255 38.5405L69.6668 68.8818L63.3187 75.2299L32.9775 44.8886Z"/>
</mask>
<path d="M32.9775 44.8886L36.9108 40.9554L30.3296 39.9968L32.9775 44.8886ZM9.93077 28.974L13.8641 25.0407L4.41725 28.2375L9.93077 28.974ZM21.9362 40.9795L18.0029 44.9128H25.8695L21.9362 40.9795ZM35.4161 27.4996L39.3494 31.4329V23.5663L35.4161 27.4996ZM23.4107 15.4941L22.6742 9.9806L19.4774 19.4274L23.4107 15.4941ZM39.3255 38.5405L34.4336 35.8927L35.3922 42.4738L39.3255 38.5405ZM69.6668 68.8818L73.6001 72.8151V64.9486L69.6668 68.8818ZM63.3187 75.2299L59.3855 79.1632H67.252L63.3187 75.2299ZM10.46 46.108C17.2801 52.9282 27.5663 54.1429 35.6255 49.7805L30.3296 39.9968C26.4797 42.0808 21.5714 41.4863 18.3265 38.2415L10.46 46.108ZM4.41725 28.2375C3.57175 34.5671 5.58178 41.2298 10.46 46.108L18.3265 38.2415C16.0029 35.9178 15.0379 32.7525 15.4443 29.7105L4.41725 28.2375ZM25.8695 37.0462L13.8641 25.0407L5.99749 32.9073L18.0029 44.9128L25.8695 37.0462ZM31.4828 23.5663L18.0029 37.0462L25.8695 44.9128L39.3494 31.4329L31.4828 23.5663ZM19.4774 19.4274L31.4828 31.4329L39.3494 23.5663L27.3439 11.5608L19.4774 19.4274ZM40.5447 16.0233C35.6665 11.1451 29.0037 9.1351 22.6742 9.9806L24.1472 21.0077C27.1892 20.6013 30.3545 21.5663 32.6781 23.8899L40.5447 16.0233ZM44.2173 41.1884C48.5795 33.1292 47.3647 22.8433 40.5447 16.0233L32.6781 23.8899C35.9229 27.1347 36.5174 32.0428 34.4336 35.8927L44.2173 41.1884ZM35.3922 42.4738L65.7335 72.8151L73.6001 64.9486L43.2588 34.6073L35.3922 42.4738ZM65.7335 64.9486L59.3855 71.2966L67.252 79.1632L73.6001 72.8151L65.7335 64.9486ZM67.252 71.2966L36.9108 40.9554L29.0442 48.8219L59.3855 79.1632L67.252 71.2966Z" fill="#93F4A6" mask="url(#path-2-outside-1_305_25472)"/>
</svg>
