<svg width="278" height="59" viewBox="0 0 278 59" fill="none" xmlns="http://www.w3.org/2000/svg">
<path d="M26.5086 6.09798L9.02922 43.4653C3.72548 38.9414 0.289551 32.1564 0.289551 24.5844C0.289551 11.0145 11.2891 0 24.8405 0H36.1341C44.2857 0 49.2935 5.21094 49.2935 11.8978C49.2935 13.8644 48.8016 16.1254 47.8196 18.2902L44.9717 24.5844H31.4203L35.742 15.3403L26.5086 6.09798ZM181.962 9.8349H167.723L156.921 25.3507L147.808 12.262C146.749 10.7408 145.015 9.8349 143.164 9.8349H133.352H131.878H120.585V24.5844H103.89V9.8349H91.1259V49.1689H103.891V34.4193H120.587V49.1689H133.352V11.8374L150.538 35.2045V49.1689H163.303V35.2045L181.962 9.8349ZM62.7451 15.5365L45.2658 52.9039L36.0342 43.6597L40.3559 34.4156H26.8045L23.9566 40.7098C22.9746 42.8727 22.4827 45.1356 22.4827 47.1022C22.4827 53.7891 27.4905 59 35.6421 59H46.9357C60.4871 59 71.4867 47.9855 71.4867 34.4156C71.4848 26.8455 68.0469 20.0605 62.7451 15.5365ZM250.213 9.73487V28.8121C250.213 35.1063 247.562 39.334 241.768 39.334C236.072 39.334 233.518 35.1063 233.518 28.8121V9.73487H220.753V29.2046C220.753 42.2839 228.51 49.6577 241.572 49.6577C254.829 49.6577 262.979 42.3801 262.979 29.2046V9.73487H250.213ZM178.132 29.5009C178.132 42.482 186.872 49.6596 202.585 49.6596C207.201 49.6596 211.719 48.9707 215.843 48.1837V37.8581C211.423 38.8414 207.691 39.334 203.469 39.334C195.024 39.334 190.9 35.7933 190.9 29.5009C190.9 23.1085 195.024 19.6679 203.469 19.6679C207.691 19.6679 211.423 20.1605 215.843 21.1438V10.8182C211.719 10.0312 207.201 9.34231 202.585 9.34231C186.872 9.34231 178.132 16.4217 178.132 29.5009ZM277.71 14.7514C277.71 12.0355 275.513 9.8349 272.801 9.8349C270.088 9.8349 267.891 12.0355 267.891 14.7514C267.891 17.4673 270.088 19.6679 272.801 19.6679C275.513 19.6679 277.71 17.4654 277.71 14.7514ZM272.799 10.8182C274.968 10.8182 276.727 12.5791 276.727 14.7514C276.727 16.9237 274.968 18.6846 272.799 18.6846C270.629 18.6846 268.871 16.9237 268.871 14.7514C268.871 12.5791 270.629 10.8182 272.799 10.8182ZM270.957 17.2408H272.16V15.3214H272.891L273.945 17.2408H275.275L274.005 15.1025C274.576 14.8835 274.974 14.4249 274.974 13.7247C274.974 12.6867 274.094 12.1224 273.042 12.1224H270.959V17.2408H270.957ZM273.777 13.7398C273.777 14.1984 273.432 14.4702 272.921 14.4702H272.16V12.9886H272.921C273.432 12.9886 273.777 13.2887 273.777 13.7398Z" fill="white"/>
</svg>
