<svg width="114" height="133" viewBox="0 0 114 133" fill="none" xmlns="http://www.w3.org/2000/svg">
<g clip-path="url(#clip0_1168_3255)">
<mask id="mask0_1168_3255" style="mask-type:alpha" maskUnits="userSpaceOnUse" x="0" y="0" width="114" height="133">
<rect width="114" height="133" fill="#D9D9D9"/>
</mask>
<g mask="url(#mask0_1168_3255)">
<path d="M-18.3715 123.323H2.77835C21.3401 123.323 38.8047 111.554 45.6029 94.27L78.3335 24.4033L95.6152 41.6831L87.5249 58.9669H112.897L118.228 47.2018C120.061 43.3411 120.987 39.1106 120.987 35.2499C120.987 22.1966 110.873 13 96.3467 13H75.2087C56.635 13 41.0151 23.4808 32.3723 42.0528L-0.358354 111.92L-17.64 94.6398L-9.54583 77.356H-34.9177L-40.241 89.1211C-42.0856 92.9818 -43 97.2123 -43 101.073C-43 114.126 -32.8942 123.323 -18.3715 123.323Z" fill="#43128E"/>
<path d="M95.4324 123.323H116.57C135.144 123.323 152.609 111.554 159.407 94.27L192.129 24.4033L209.411 41.6831L201.329 58.9669H226.689L232.024 47.2018C233.865 43.3411 234.783 39.1106 234.783 35.2499C234.783 22.1966 224.677 13 210.151 13H189.005C170.439 13 154.807 23.4808 146.168 42.0528L113.446 111.92L96.1639 94.6398L104.258 77.356H78.8862L73.551 89.1211C71.7183 92.9818 70.792 97.2123 70.792 101.073C70.792 114.126 80.9097 123.323 95.4324 123.323Z" fill="#43128E"/>
<path d="M-132.36 123.323H-111.222C-92.6479 123.323 -75.1834 111.554 -68.3852 94.27L-35.6625 24.4033L-18.3808 41.6831L-26.4631 58.9669H-1.10312L4.23205 47.2018C6.07273 43.3411 6.99108 39.1106 6.99108 35.2499C6.99108 22.1966 -3.11475 13 -17.6414 13H-38.7873C-57.3531 13 -72.9849 23.4808 -81.6237 42.0528L-114.346 111.92L-131.628 94.6398L-123.534 77.356H-148.906L-154.241 89.1211C-156.074 92.9818 -157 97.2123 -157 101.073C-157 114.126 -146.882 123.323 -132.36 123.323Z" fill="#43128E"/>
</g>
</g>
<defs>
<clipPath id="clip0_1168_3255">
<rect width="114" height="133" fill="white"/>
</clipPath>
</defs>
</svg>
